<?xml version="1.0" standalone="no"?>
<!DOCTYPE svg PUBLIC "-//W3C//DTD SVG 20010904//EN"
 "http://www.w3.org/TR/2001/REC-SVG-20010904/DTD/svg10.dtd">
<svg version="1.0" xmlns="http://www.w3.org/2000/svg"
 width="580.000000pt" height="550.000000pt" viewBox="0 0 580.000000 550.000000"
 preserveAspectRatio="xMidYMid meet">

<g transform="translate(0.000000,550.000000) scale(0.100000,-0.100000)"
fill="#000000" stroke="none">
<path d="M2620 4905 l0 -155 -155 0 -155 0 0 -310 0 -310 -155 0 -155 0 0
-155 0 -155 -310 0 -310 0 0 -155 0 -155 -465 0 -465 0 0 -310 0 -310 155 0
155 0 0 -155 0 -155 155 0 155 0 0 -155 0 -155 155 0 155 0 0 -310 0 -310
-155 0 -155 0 0 -620 0 -620 620 0 620 0 0 155 0 155 155 0 155 0 0 155 0 155
310 0 310 0 0 -155 0 -155 155 0 155 0 0 -155 0 -155 620 0 620 0 0 620 0 620
-155 0 -155 0 0 310 0 310 155 0 155 0 0 155 0 155 155 0 155 0 0 155 0 155
155 0 155 0 0 310 0 310 -465 0 -465 0 0 155 0 155 -310 0 -310 0 0 155 0 155
-155 0 -155 0 0 310 0 310 -155 0 -155 0 0 155 0 155 -310 0 -310 0 0 -155z
m620 -465 l0 -310 155 0 155 0 0 -155 0 -155 155 0 155 0 0 -155 0 -155 310 0
310 0 0 -155 0 -155 310 0 310 0 0 -155 0 -155 -310 0 -310 0 0 -155 0 -155
-155 0 -155 0 0 -620 0 -620 155 0 155 0 0 -310 0 -310 -310 0 -310 0 0 155 0
155 -310 0 -310 0 0 155 0 155 -310 0 -310 0 0 -155 0 -155 -310 0 -310 0 0
-155 0 -155 -310 0 -310 0 0 310 0 310 155 0 155 0 0 620 0 620 -155 0 -155 0
0 155 0 155 -310 0 -310 0 0 155 0 155 310 0 310 0 0 155 0 155 310 0 310 0 0
155 0 155 155 0 155 0 0 155 0 155 155 0 155 0 0 310 0 310 310 0 310 0 0
-310z"/>
<path d="M2310 2735 l0 -465 155 0 155 0 0 465 0 465 -155 0 -155 0 0 -465z"/>
<path d="M3240 2735 l0 -465 155 0 155 0 0 465 0 465 -155 0 -155 0 0 -465z"/>
</g>
</svg>
